# xmcd
#
# Track frame offsets: 
#        150
#        16185
#        30965
#        45820
#        61962
#        75742
#        90515
#        107390
#        125070
#        141225
#        158142
#        173035
#        192497
#        206787
#        220457
#
# Disc length: 3135 seconds
#
# Revision: 0
# Processed by: cddbd v1.4PL0 Copyright (c) Steve Scherf et al.
# Submitted via: ExactAudioCopy v0.95a3
#
DISCID=c20c3d0f
DTITLE=Various Artist - MM6136
DYEAR=1900
DGENRE=Country
TTITLE0=Byrd, Tracy - Heaven In My Woman's Eyes
TTITLE1=Berry, John - Every Time My Heart Calls Your Name
TTITLE2=Messina, Jo Dee - Heads Carolina, Tails California
TTITLE3=Dean, Billy - It's What I Do
TTITLE4=Yoakam, Dwight - Gone
TTITLE5=Bentley, Stephanie - Who's That Girl?
TTITLE6=Skaggs, Ricky - Back Where We Belong
TTITLE7=Wright, Chely - Love That We Lost, The
TTITLE8=McCready, Mindy - Ten Thousand Angels
TTITLE9=England, Ty - Redneck Son
TTITLE10=Brown, Junior - My Wife Thinks You're Dead
TTITLE11=Davis, Linda - Neither One Of Us
TTITLE12=McCready, Rich - Hangin' On
TTITLE13=Barnett, Mandy - Now That's All Right With Me
TTITLE14=Tippin, Aaron - Without Your Love
EXTD=
EXTT0=
EXTT1=
EXTT2=
EXTT3=
EXTT4=
EXTT5=
EXTT6=
EXTT7=
EXTT8=
EXTT9=
EXTT10=
EXTT11=
EXTT12=
EXTT13=
EXTT14=
PLAYORDER=
